ffmpeg version 8.0.1-essentials_build-www.gyan.dev Copyright (c) 2000-2025 the FFmpeg developers
  built with gcc 15.2.0 (Rev8, Built by MSYS2 project)
  configuration: --enable-gpl --enable-version3 --enable-static --disable-w32threads --disable-autodetect --enable-fontconfig --enable-iconv --enable-gnutls --enable-libxml2 --enable-gmp --enable-bzlib --enable-lzma --enable-zlib --enable-libsrt --enable-libssh --enable-libzmq --enable-avisynth --enable-sdl2 --enable-libwebp --enable-libx264 --enable-libx265 --enable-libxvid --enable-libaom --enable-libopenjpeg --enable-libvpx --enable-mediafoundation --enable-libass --enable-libfreetype --enable-libfribidi --enable-libharfbuzz --enable-libvidstab --enable-libvmaf --enable-libzimg --enable-amf --enable-cuda-llvm --enable-cuvid --enable-dxva2 --enable-d3d11va --enable-d3d12va --enable-ffnvcodec --enable-libvpl --enable-nvdec --enable-nvenc --enable-vaapi --enable-openal --enable-libgme --enable-libopenmpt --enable-libopencore-amrwb --enable-libmp3lame --enable-libtheora --enable-libvo-amrwbenc --enable-libgsm --enable-libopencore-amrnb --enable-libopus --enable-libspeex --enable-libvorbis --enable-librubberband
  libavutil      60.  8.100 / 60.  8.100
  libavcodec     62. 11.100 / 62. 11.100
  libavformat    62.  3.100 / 62.  3.100
  libavdevice    62.  1.100 / 62.  1.100
  libavfilter    11.  4.100 / 11.  4.100
  libswscale      9.  1.100 /  9.  1.100
  libswresample   6.  1.100 /  6.  1.100
Input #0, image2, from 'temp_frames\frame_%04d.png':
  Duration: 00:00:56.00, start: 0.000000, bitrate: N/A
  Stream #0:0: Video: png, rgba(pc, gbr/unknown/unknown), 1920x959, 10 fps, 10 tbr, 10 tbn
[aist#1:0/pcm_s16le @ 000002f7fee9cf80] Guessed Channel Layout: stereo
Input #1, wav, from 'public/audio/ambient_bg.wav':
  Duration: 00:01:28.00, bitrate: 1411 kb/s
  Stream #1:0: Audio: pcm_s16le ([1][0][0][0] / 0x0001), 44100 Hz, stereo, s16, 1411 kb/s
[mp3 @ 000002f7ff147b80] Estimating duration from bitrate, this may be inaccurate
Input #2, mp3, from 'public/audio/vi_step0.mp3':
  Duration: 00:00:19.87, start: 0.000000, bitrate: 48 kb/s
  Stream #2:0: Audio: mp3 (mp3float), 24000 Hz, mono, fltp, 48 kb/s
[mp3 @ 000002f7ffc09640] Estimating duration from bitrate, this may be inaccurate
Input #3, mp3, from 'public/audio/vi_step1.mp3':
  Duration: 00:00:19.20, start: 0.000000, bitrate: 48 kb/s
  Stream #3:0: Audio: mp3 (mp3float), 24000 Hz, mono, fltp, 48 kb/s
[mp3 @ 000002f7814104c0] Estimating duration from bitrate, this may be inaccurate
Input #4, mp3, from 'public/audio/vi_step2.mp3':
  Duration: 00:00:17.16, start: 0.000000, bitrate: 48 kb/s
  Stream #4:0: Audio: mp3 (mp3float), 24000 Hz, mono, fltp, 48 kb/s
[mp3 @ 000002f7fef57140] Estimating duration from bitrate, this may be inaccurate
Input #5, mp3, from 'public/audio/vi_step3.mp3':
  Duration: 00:00:16.75, start: 0.000000, bitrate: 48 kb/s
  Stream #5:0: Audio: mp3 (mp3float), 24000 Hz, mono, fltp, 48 kb/s
Stream mapping:
  Stream #1:0 (pcm_s16le) -> volume:default
  Stream #2:0 (mp3float) -> adelay:default
  Stream #3:0 (mp3float) -> adelay:default
  Stream #4:0 (mp3float) -> adelay:default
  Stream #5:0 (mp3float) -> adelay:default
  Stream #0:0 -> #0:0 (png (native) -> h264 (libx264))
  volume:default -> Stream #0:1 (aac)
Press [q] to stop, [?] for help
[libx264 @ 000002f7ffbe6980] using cpu capabilities: MMX2 SSE2Fast SSSE3 SSE4.2 AVX FMA3 BMI2 AVX2
[libx264 @ 000002f7ffbe6980] profile High, level 4.0, 4:2:0, 8-bit
[libx264 @ 000002f7ffbe6980] 264 - core 165 r3223 0480cb0 - H.264/MPEG-4 AVC codec - Copyleft 2003-2025 - http://www.videolan.org/x264.html - options: cabac=1 ref=3 deblock=1:0:0 analyse=0x3:0x113 me=hex subme=7 psy=1 psy_rd=1.00:0.00 mixed_ref=1 me_range=16 chroma_me=1 trellis=1 8x8dct=1 cqm=0 deadzone=21,11 fast_pskip=1 chroma_qp_offset=-2 threads=24 lookahead_threads=4 sliced_threads=0 nr=0 decimate=1 interlaced=0 bluray_compat=0 constrained_intra=0 bframes=3 b_pyramid=2 b_adapt=1 b_bias=0 direct=1 weightb=1 open_gop=0 weightp=2 keyint=250 keyint_min=10 scenecut=40 intra_refresh=0 rc_lookahead=40 rc=crf mbtree=1 crf=23.0 qcomp=0.60 qpmin=0 qpmax=69 qpstep=4 ip_ratio=1.40 aq=1:1.00
Output #0, mp4, to 'public/videos/demo.mp4':
  Metadata:
    encoder         : Lavf62.3.100
  Stream #0:0: Video: h264 (avc1 / 0x31637661), yuv420p(tv, progressive), 1920x914, q=2-31, 10 fps, 10240 tbn
    Metadata:
      encoder         : Lavc62.11.100 libx264
    Side data:
      cpb: bitrate max/min/avg: 0/0/0 buffer size: 0 vbv_delay: N/A
  Stream #0:1: Audio: aac (LC) (mp4a / 0x6134706D), 44100 Hz, stereo, fltp, 128 kb/s
    Metadata:
      encoder         : Lavc62.11.100 aac
frame=    0 fps=0.0 q=0.0 size=       0KiB time=N/A bitrate=N/A speed=N/A elapsed=0:00:00.51    frame=   15 fps= 15 q=25.0 size=     256KiB time=00:00:01.30 bitrate=1613.5kbits/s speed=1.28x elapsed=0:00:01.01    frame=   55 fps= 36 q=25.0 size=     512KiB time=00:00:05.30 bitrate= 791.5kbits/s speed=3.45x elapsed=0:00:01.53    frame=   97 fps= 47 q=25.0 size=     768KiB time=00:00:09.50 bitrate= 662.3kbits/s speed=4.62x elapsed=0:00:02.05    frame=  132 fps= 51 q=25.0 size=    1024KiB time=00:00:13.00 bitrate= 645.3kbits/s speed=5.06x elapsed=0:00:02.56    frame=  164 fps= 53 q=25.0 size=    1280KiB time=00:00:16.20 bitrate= 647.3kbits/s speed=5.25x elapsed=0:00:03.08    frame=  203 fps= 56 q=25.0 size=    1536KiB time=00:00:20.10 bitrate= 626.0kbits/s speed=5.57x elapsed=0:00:03.60    frame=  249 fps= 60 q=25.0 size=    1792KiB time=00:00:24.70 bitrate= 594.4kbits/s speed=   6x elapsed=0:00:04.11    frame=  297 fps= 64 q=25.0 size=    2048KiB time=00:00:29.50 bitrate= 568.7kbits/s speed=6.35x elapsed=0:00:04.64    frame=  345 fps= 67 q=25.0 size=    2304KiB time=00:00:34.30 bitrate= 550.3kbits/s speed=6.65x elapsed=0:00:05.15    frame=  391 fps= 69 q=25.0 size=    2560KiB time=00:00:38.90 bitrate= 539.1kbits/s speed=6.85x elapsed=0:00:05.67    frame=  437 fps= 70 q=25.0 size=    2816KiB time=00:00:43.50 bitrate= 530.3kbits/s speed=7.02x elapsed=0:00:06.19    frame=  480 fps= 72 q=25.0 size=    3328KiB time=00:00:47.80 bitrate= 570.4kbits/s speed=7.12x elapsed=0:00:06.71    frame=  538 fps= 74 q=22.0 size=    3584KiB time=00:00:53.60 bitrate= 547.8kbits/s speed=7.42x elapsed=0:00:07.22    frame=  584 fps= 75 q=25.0 size=    4096KiB time=00:00:57.51 bitrate= 583.4kbits/s speed=7.43x elapsed=0:00:07.74    frame=  626 fps= 76 q=25.0 size=    4608KiB time=00:01:02.40 bitrate= 605.0kbits/s speed=7.56x elapsed=0:00:08.25    frame=  679 fps= 77 q=25.0 size=    4864KiB time=00:01:07.50 bitrate= 590.3kbits/s speed=7.69x elapsed=0:00:08.77    frame=  736 fps= 79 q=25.0 size=    5376KiB time=00:01:13.21 bitrate= 601.5kbits/s speed=7.88x elapsed=0:00:09.28    frame=  807 fps= 82 q=25.0 size=    5632KiB time=00:01:20.50 bitrate= 573.1kbits/s speed= 8.2x elapsed=0:00:09.81    [out#0/mp4 @ 000002f7feea0240] video:4989KiB audio:1380KiB subtitle:0KiB other streams:0KiB global headers:0KiB muxing overhead: 0.616509%
frame=  880 fps= 86 q=-1.0 Lsize=    6408KiB time=00:01:27.80 bitrate= 597.9kbits/s speed=8.59x elapsed=0:00:10.21    
[libx264 @ 000002f7ffbe6980] frame I:19    Avg QP:10.33  size: 76901
[libx264 @ 000002f7ffbe6980] frame P:286   Avg QP:18.49  size:  9283
[libx264 @ 000002f7ffbe6980] frame B:575   Avg QP:21.59  size:  1725
[libx264 @ 000002f7ffbe6980] consecutive B-frames:  8.1% 10.2% 12.6% 69.1%
[libx264 @ 000002f7ffbe6980] mb I  I16..4: 71.0% 13.9% 15.1%
[libx264 @ 000002f7ffbe6980] mb P  I16..4:  9.0%  2.1%  1.6%  P16..4:  3.4%  0.8%  0.5%  0.0%  0.0%    skip:82.5%
[libx264 @ 000002f7ffbe6980] mb B  I16..4:  1.4%  0.7%  0.1%  B16..8:  6.0%  0.8%  0.1%  direct: 0.3%  skip:90.5%  L0:54.2% L1:43.6% BI: 2.2%
[libx264 @ 000002f7ffbe6980] 8x8 transform intra:18.5% inter:58.7%
[libx264 @ 000002f7ffbe6980] coded y,uvDC,uvAC intra: 16.1% 54.7% 15.5% inter: 0.9% 1.9% 0.2%
[libx264 @ 000002f7ffbe6980] i16 v,h,dc,p: 55% 41%  3%  1%
[libx264 @ 000002f7ffbe6980] i8 v,h,dc,ddl,ddr,vr,hd,vl,hu: 40% 28% 30%  1%  0%  0%  0%  0%  1%
[libx264 @ 000002f7ffbe6980] i4 v,h,dc,ddl,ddr,vr,hd,vl,hu: 33% 29% 24%  2%  2%  3%  3%  2%  3%
[libx264 @ 000002f7ffbe6980] i8c dc,h,v,p: 34% 36% 28%  2%
[libx264 @ 000002f7ffbe6980] Weighted P-Frames: Y:2.1% UV:1.4%
[libx264 @ 000002f7ffbe6980] ref P L0: 59.2%  8.1% 20.5% 12.1%  0.1%
[libx264 @ 000002f7ffbe6980] ref B L0: 71.8% 22.6%  5.6%
[libx264 @ 000002f7ffbe6980] ref B L1: 93.1%  6.9%
[libx264 @ 000002f7ffbe6980] kb/s:464.34
[aac @ 000002f7fef5a140] Qavg: 646.464
